<mxfile host="app.diagrams.net" modified="2023-07-11T01:41:21.137Z" agent="Mozilla/5.0 (Windows NT 10.0; Win64; x64) AppleWebKit/537.36 (KHTML, like Gecko) Chrome/114.0.0.0 Safari/537.36" etag="gjidQ5WYsxU9ufScRPZT" version="21.6.1" type="github">
  <diagram name="第1頁" id="VoAf3KMOVnK2YWkbmDfN">
    <mxGraphModel dx="1086" dy="3026" grid="1" gridSize="10" guides="1" tooltips="1" connect="1" arrows="1" fold="1" page="1" pageScale="1" pageWidth="827" pageHeight="1169" math="0" shadow="0">
      <root>
        <mxCell id="0" />
        <mxCell id="1" parent="0" />
        <mxCell id="ziQnmTmZbCSx23QUUUmI-6" value="" style="rounded=0;whiteSpace=wrap;html=1;fillColor=#dae8fc;strokeColor=#6c8ebf;" parent="1" vertex="1">
          <mxGeometry x="190" y="-2230" width="560" height="290" as="geometry" />
        </mxCell>
        <mxCell id="ziQnmTmZbCSx23QUUUmI-8" style="edgeStyle=orthogonalEdgeStyle;rounded=0;orthogonalLoop=1;jettySize=auto;html=1;exitX=1;exitY=0.25;exitDx=0;exitDy=0;exitPerimeter=0;entryX=-0.009;entryY=0.557;entryDx=0;entryDy=0;entryPerimeter=0;" parent="1" source="ziQnmTmZbCSx23QUUUmI-1" target="ziQnmTmZbCSx23QUUUmI-2" edge="1">
          <mxGeometry relative="1" as="geometry">
            <mxPoint x="180" y="-2045" as="targetPoint" />
          </mxGeometry>
        </mxCell>
        <mxCell id="ziQnmTmZbCSx23QUUUmI-16" value="1. 確認緊急公告" style="edgeLabel;html=1;align=center;verticalAlign=middle;resizable=0;points=[];" parent="ziQnmTmZbCSx23QUUUmI-8" vertex="1" connectable="0">
          <mxGeometry x="-0.1617" y="-1" relative="1" as="geometry">
            <mxPoint x="19" y="-16" as="offset" />
          </mxGeometry>
        </mxCell>
        <mxCell id="ziQnmTmZbCSx23QUUUmI-1" value="CUBE APP" style="outlineConnect=0;dashed=0;verticalLabelPosition=bottom;verticalAlign=top;align=center;html=1;shape=mxgraph.aws3.mobile_client;fillColor=#D2D3D3;gradientColor=none;fontSize=14;" parent="1" vertex="1">
          <mxGeometry x="60" y="-2060.5" width="40.5" height="63" as="geometry" />
        </mxCell>
        <mxCell id="ziQnmTmZbCSx23QUUUmI-9" style="edgeStyle=orthogonalEdgeStyle;rounded=0;orthogonalLoop=1;jettySize=auto;html=1;exitX=0;exitY=0.75;exitDx=0;exitDy=0;entryX=1;entryY=0.75;entryDx=0;entryDy=0;entryPerimeter=0;" parent="1" source="ziQnmTmZbCSx23QUUUmI-2" target="ziQnmTmZbCSx23QUUUmI-1" edge="1">
          <mxGeometry relative="1" as="geometry" />
        </mxCell>
        <mxCell id="ziQnmTmZbCSx23QUUUmI-17" value="2. 回傳結果" style="edgeLabel;html=1;align=center;verticalAlign=middle;resizable=0;points=[];" parent="ziQnmTmZbCSx23QUUUmI-9" vertex="1" connectable="0">
          <mxGeometry x="0.2087" y="3" relative="1" as="geometry">
            <mxPoint x="10" y="9" as="offset" />
          </mxGeometry>
        </mxCell>
        <mxCell id="ziQnmTmZbCSx23QUUUmI-2" value="" style="strokeColor=#dddddd;shadow=1;strokeWidth=1;rounded=1;absoluteArcSize=1;arcSize=2;fontSize=14;" parent="1" vertex="1">
          <mxGeometry x="270" y="-2140" width="170" height="170" as="geometry" />
        </mxCell>
        <mxCell id="ziQnmTmZbCSx23QUUUmI-3" value="&lt;font style=&quot;font-size: 14px;&quot;&gt;&lt;font style=&quot;font-size: 14px;&quot; color=&quot;#000000&quot;&gt;cubeque-status&lt;/font&gt;&lt;br&gt;Cloud Run&lt;/font&gt;" style="editableCssRules=.*;html=1;fontColor=#999999;shape=image;verticalLabelPosition=middle;labelBackgroundColor=#ffffff;verticalAlign=middle;labelPosition=right;align=left;spacingLeft=20;part=1;points=[];imageAspect=0;image=data:image/svg+xml,PHN2ZyB4bWxucz0iaHR0cDovL3d3dy53My5vcmcvMjAwMC9zdmciIHhtbG5zOnY9Imh0dHBzOi8vdmVjdGEuaW8vbmFubyIgd2lkdGg9IjM2NS40NjQ5OTY3NzA0MjQ5MyIgaGVpZ2h0PSIzNzkuMjIyOTk0NDYzNTc3OTUiIHZpZXdCb3g9IjAgMCA5Ni42OTU5OTkxNDU1MDc4MSAxMDAuMzM1OTk4NTM1MTU2MjUiPiYjeGE7PHN0eWxlIHR5cGU9InRleHQvY3NzIj4mI3hhOwkuc3Qwe2ZpbGw6IzQyODVmNDt9JiN4YTsJLnN0MXtmaWxsOiNhZWNiZmE7fSYjeGE7PC9zdHlsZT4mI3hhOwk8cGF0aCBjbGFzcz0ic3QwIiBkPSJNMjkuNzk0IDEwMC4zMzZMNDYuOTIgNTAuMTY4aDQ5Ljc3NnpNMCA5OS42NzFsMTIuOTc2LTQ5LjUwMkgyOS4yMkwxNi44OTcgOTIuMDU0eiIvPiYjeGE7CTxwYXRoIGNsYXNzPSJzdDEiIGQ9Ik0yOS43OTQgMEw0Ni45MiA1MC4xNjhoNDkuNzc2ek0wIC42NjZsMTIuOTc2IDQ5LjUwMkgyOS4yMkwxNi44OTcgOC4yODN6Ii8+JiN4YTs8L3N2Zz4=;" parent="ziQnmTmZbCSx23QUUUmI-2" vertex="1">
          <mxGeometry width="30" height="30" relative="1" as="geometry">
            <mxPoint x="15" y="15" as="offset" />
          </mxGeometry>
        </mxCell>
        <mxCell id="ziQnmTmZbCSx23QUUUmI-18" value="&lt;font style=&quot;font-size: 14px;&quot;&gt;每 30 秒&lt;br&gt;讀取資料放到&lt;br&gt;Memory&lt;br&gt;&lt;/font&gt;" style="points=[[0.25,0,0],[0.5,0,0],[0.75,0,0],[1,0.25,0],[1,0.5,0],[1,0.75,0],[0.75,1,0],[0.5,1,0],[0.25,1,0],[0,0.75,0],[0,0.5,0],[0,0.25,0]];shape=mxgraph.bpmn.task;whiteSpace=wrap;rectStyle=rounded;size=10;html=1;container=1;expand=0;collapsible=0;taskMarker=abstract;bpmnShapeType=subprocess;isLoopSub=1;outline=eventInt;symbol=timer;" parent="ziQnmTmZbCSx23QUUUmI-2" vertex="1">
          <mxGeometry x="28" y="70" width="116" height="80" as="geometry" />
        </mxCell>
        <mxCell id="ziQnmTmZbCSx23QUUUmI-4" value="" style="strokeColor=#dddddd;shadow=1;strokeWidth=1;rounded=1;absoluteArcSize=1;arcSize=2;" parent="1" vertex="1">
          <mxGeometry x="520" y="-2060" width="190" height="60" as="geometry" />
        </mxCell>
        <mxCell id="ziQnmTmZbCSx23QUUUmI-5" value="&lt;font style=&quot;font-size: 14px;&quot;&gt;&lt;font style=&quot;font-size: 14px;&quot; color=&quot;#000000&quot;&gt;dcsmidlxmtc01g01&lt;/font&gt;&lt;br&gt;Cloud SQL&lt;/font&gt;" style="editableCssRules=.*;html=1;fontColor=#999999;shape=image;verticalLabelPosition=middle;labelBackgroundColor=#ffffff;verticalAlign=middle;labelPosition=right;align=left;spacingLeft=20;part=1;points=[];imageAspect=0;image=data:image/svg+xml,PHN2ZyB4bWxucz0iaHR0cDovL3d3dy53My5vcmcvMjAwMC9zdmciIHhtbG5zOnY9Imh0dHBzOi8vdmVjdGEuaW8vbmFubyIgd2lkdGg9IjE0LjY1OTk5OTg0NzQxMjExIiBoZWlnaHQ9IjIwIiB2aWV3Qm94PSIwIDAgMTQuNjU5OTk5ODQ3NDEyMTEgMjAiPiYjeGE7CTxzdHlsZSB0eXBlPSJ0ZXh0L2NzcyI+JiN4YTsJLnN0MHtmaWxsOiM0Mjg1ZjQ7fSYjeGE7CS5zdDF7ZmlsbDojNjY5ZGY2O30mI3hhOwkuc3Qye2ZpbGw6I2FlY2JmYTt9JiN4YTsJPC9zdHlsZT4mI3hhOwk8c3R5bGU+JiN4YTsJCS5Ee2ZpbGwtcnVsZTpldmVub2RkfSYjeGE7CTwvc3R5bGU+JiN4YTsJPHBhdGggZD0iTTcuMzMgMTUuMzV2LTMuMDFMMCA4LjQ0djMuMDF6bTAgNC42NXYtMy4wMUwwIDEzLjA5djMuMDF6IiBjbGFzcz0ic3QyIEQiLz4mI3hhOwk8cGF0aCBkPSJNMTQuNjYgOC40NGwtNy4zMyAzLjl2My4wMWw3LjMzLTMuOXptMCA0LjY1bC03LjMzIDMuOVYyMGw3LjMzLTMuOXoiIGNsYXNzPSJzdDEgRCIvPiYjeGE7CTxwYXRoIGQ9Ik03LjMzIDB2My4wMWw3LjMzIDMuOVYzLjl6IiBjbGFzcz0ic3QwIEQiLz4mI3hhOwk8cGF0aCBkPSJNMCA2LjkxbDcuMzMtMy45VjBMMCAzLjl6IiBjbGFzcz0iRCBzdDEiLz4mI3hhOwk8cGF0aCBkPSJNNy4zMyAxMC43OVY3Ljc3TDAgMy44N3YzLjAyeiIgY2xhc3M9IkQgc3QyIi8+JiN4YTsJPHBhdGggZD0iTTE0LjY2IDMuODdsLTcuMzMgMy45djMuMDJsNy4zMy0zLjl6IiBjbGFzcz0iRCBzdDEiLz4mI3hhOzwvc3ZnPg==;" parent="ziQnmTmZbCSx23QUUUmI-4" vertex="1">
          <mxGeometry width="22" height="30" relative="1" as="geometry">
            <mxPoint x="19" y="15" as="offset" />
          </mxGeometry>
        </mxCell>
        <mxCell id="ziQnmTmZbCSx23QUUUmI-7" value="" style="shape=image;verticalLabelPosition=bottom;labelBackgroundColor=default;verticalAlign=top;aspect=fixed;imageAspect=0;image=data:image/svg+xml,PHN2ZyB4bWxucz0iaHR0cDovL3d3dy53My5vcmcvMjAwMC9zdmciIHZpZXdCb3g9IjAgMCAxMzguMzUgMjQiIGRhdGEtbmFtZT0iR29vZ2xlIENsb3VkIGxvZ28iIGlkPSJHb29nbGVfQ2xvdWRfbG9nbyI+PHBhdGggc3R5bGU9ImZpbGw6IzVmNjM2OCIgZD0iTTg5Ljc1LDE4LjYyQTguMzYsOC4zNiwwLDAsMSw4MS4yLDEwLDguMzMsOC4zMywwLDAsMSw4My42MywzLjlhOC4yNSw4LjI1LDAsMCwxLDYuMTItMi40OCw3LjYyLDcuNjIsMCwwLDEsNiwyLjY5TDk0LjI4LDUuNThhNS42NCw1LjY0LDAsMCwwLTQuNTMtMi4xNCw2LjIyLDYuMjIsMCwwLDAtNC41NywxLjg0QTYuMzgsNi4zOCwwLDAsMCw4My4zNiwxMGE2LjM4LDYuMzgsMCwwLDAsMS44Miw0Ljc0LDYuMTgsNi4xOCwwLDAsMCw0LjU3LDEuODQsNi40NCw2LjQ0LDAsMCwwLDUtMi40MmwxLjU0LDEuNWE4LDgsMCwwLDEtMi44NywyLjE3QTguNjcsOC42NywwLDAsMSw4OS43NSwxOC42MlpNMTAwLjEyLDEuNzlWMTguMjZIOThWMS43OVptMS44MiwxMC44M2E2LDYsMCwwLDEsMS42NC00LjMsNS41Nyw1LjU3LDAsMCwxLDQuMTYtMS43LDUuNTEsNS41MSwwLDAsMSw0LjE0LDEuNyw1LjkyLDUuOTIsMCwwLDEsMS42NSw0LjMsNS44Nyw1Ljg3LDAsMCwxLTEuNjUsNC4zLDUuNDcsNS40NywwLDAsMS00LjE0LDEuNyw1LjUzLDUuNTMsMCwwLDEtNC4xNi0xLjdBNiw2LDAsMCwxLDEwMS45NCwxMi42MlptMi4xMiwwYTQuMSw0LjEsMCwwLDAsMS4wNiwyLjk0LDMuNiwzLjYsMCwwLDAsNS4yNCwwLDQuMSw0LjEsMCwwLDAsMS4wNi0yLjk0LDQuMDcsNC4wNywwLDAsMC0xLjA2LTIuOTIsMy41NiwzLjU2LDAsMCwwLTUuMjQsMEE0LjA3LDQuMDcsMCwwLDAsMTA0LjA2LDEyLjYyWm0yMS4xNyw1LjY0aC0yVjE2LjY5aC0uMWEzLjc1LDMuNzUsMCwwLDEtMS40OCwxLjM4LDQuMjMsNC4yMywwLDAsMS0yLjA4LjU1LDQuMTgsNC4xOCwwLDAsMS0zLjE5LTEuMTgsNC43NCw0Ljc0LDAsMCwxLTEuMTEtMy4zN1Y3aDIuMTF2Ni45NGEyLjQ5LDIuNDksMCwwLDAsMi43OSwyLjc2LDIuNjMsMi42MywwLDAsMCwyLjExLTEsMy42OSwzLjY5LDAsMCwwLC44NS0yLjQ1VjdoMi4xMlptNy4xNi4zNmE1LDUsMCwwLDEtMy43OS0xLjc0QTYuMjQsNi4yNCwwLDAsMSwxMjcsMTIuNjJhNi4yLDYuMiwwLDAsMSwxLjU2LTQuMjUsNC45NCw0Ljk0LDAsMCwxLDMuNzktMS43NSw0Ljc4LDQuNzgsMCwwLDEsMi4yNy41Myw0LDQsMCwwLDEsMS41OCwxLjRoLjA5TDEzNi4yNCw3VjEuNzloMi4xMVYxOC4yNmgtMlYxNi42OWgtLjA5YTQsNCwwLDAsMS0xLjU4LDEuNEE0Ljc4LDQuNzgsMCwwLDEsMTMyLjM5LDE4LjYyWm0uMzUtMS45M2EzLjIxLDMuMjEsMCwwLDAsMi41NS0xLjEzLDQuMTcsNC4xNywwLDAsMCwxLTIuOTQsNC4yMSw0LjIxLDAsMCwwLTEtMi45MiwzLjIzLDMuMjMsMCwwLDAtMi41NS0xLjE1LDMuMjksMy4yOSwwLDAsMC0yLjU1LDEuMTUsNC4yMSw0LjIxLDAsMCwwLTEsMi45Miw0LjE0LDQuMTQsMCwwLDAsMSwyLjkyQTMuMjksMy4yOSwwLDAsMCwxMzIuNzQsMTYuNjlaIi8+PGcgZGF0YS1uYW1lPSI3NXgyNHB4IiBpZD0iXzc1eDI0cHgiPjxwYXRoIHN0eWxlPSJmaWxsOiM0Mjg1ZjQiIGQ9Ik05LjQ5LDE4LjYyQTkuNDYsOS40NiwwLDAsMSwwLDkuMzEsOS40Niw5LjQ2LDAsMCwxLDkuNDksMCw4LjkxLDguOTEsMCwwLDEsMTUuOSwyLjU3TDE0LjA5LDQuMzZhNi41MSw2LjUxLDAsMCwwLTQuNi0xLjgyQTYuNjksNi42OSwwLDAsMCwyLjc4LDkuMzFhNi42OSw2LjY5LDAsMCwwLDYuNzEsNi43Nyw2LjI1LDYuMjUsMCwwLDAsNC43Mi0xLjg3QTUuMjYsNS4yNiwwLDAsMCwxNS42LDExSDkuNDlWOC40N2g4LjZhOC4zOCw4LjM4LDAsMCwxLC4xMywxLjU5QTguMzcsOC4zNywwLDAsMSwxNiwxNiw4LjU3LDguNTcsMCwwLDEsOS40OSwxOC42MloiLz48cGF0aCBzdHlsZT0iZmlsbDojZWE0MzM1IiBkPSJNMzEuNTIsMTIuNjJhNS45NCw1Ljk0LDAsMSwxLTExLjg3LDAsNS45NCw1Ljk0LDAsMSwxLDExLjg3LDBabS0yLjYsMGEzLjM1LDMuMzUsMCwxLDAtNi42NywwLDMuMzUsMy4zNSwwLDEsMCw2LjY3LDBaIi8+PHBhdGggc3R5bGU9ImZpbGw6I2ZiYmMwNCIgZD0iTTQ0LjgzLDEyLjYyYTUuOTQsNS45NCwwLDEsMS0xMS44NywwLDUuOTQsNS45NCwwLDEsMSwxMS44NywwWm0tMi42LDBhMy4zNSwzLjM1LDAsMSwwLTYuNjgsMCwzLjM1LDMuMzUsMCwxLDAsNi42OCwwWiIvPjxwYXRoIHN0eWxlPSJmaWxsOiM0Mjg1ZjQiIGQ9Ik01Ny44LDdWMTcuNzZjMCw0LjQyLTIuNjMsNi4yNC01LjczLDYuMjRhNS43NSw1Ljc1LDAsMCwxLTUuMzQtMy41NGwyLjMxLTFhMy4zMiwzLjMyLDAsMCwwLDMsMi4xNGMyLDAsMy4yMi0xLjIzLDMuMjItMy41MnYtLjg2SDU1LjJBNC4xNiw0LjE2LDAsMCwxLDUyLDE4LjYyYTYsNiwwLDAsMSwwLTEyQTQuMjIsNC4yMiwwLDAsMSw1NS4yLDhoLjA5VjdabS0yLjMzLDUuNjZBMy4zOSwzLjM5LDAsMCwwLDUyLjI1LDlhMy40OCwzLjQ4LDAsMCwwLTMuMzUsMy42NiwzLjQ1LDMuNDUsMCwwLDAsMy4zNSwzLjYxQTMuMzUsMy4zNSwwLDAsMCw1NS40NywxMi42NVoiLz48cGF0aCBzdHlsZT0iZmlsbDojMzRhODUzIiBkPSJNNjIuNDMuNjRWMTguMjZINTkuNzlWLjY0WiIvPjxwYXRoIHN0eWxlPSJmaWxsOiNlYTQzMzUiIGQ9Ik03Mi44MywxNC42LDc0Ljg5LDE2YTYsNiwwLDAsMS01LDIuNjYsNS44MSw1LjgxLDAsMCwxLTUuODktNiw1LjUyLDUuNTIsMCwwLDEsMTAuNzUtMi4xOGwuMjcuNjktOCwzLjMxYTMuMDcsMy4wNywwLDAsMCwyLjkyLDEuODJBMy40NCwzLjQ0LDAsMCwwLDcyLjgzLDE0LjZabS02LjMxLTIuMTYsNS4zOC0yLjIyQTIuMzQsMi4zNCwwLDAsMCw2OS42Niw5LDMuMjksMy4yOSwwLDAsMCw2Ni41MiwxMi40NFoiLz48L2c+PC9zdmc+;" parent="1" vertex="1">
          <mxGeometry x="210" y="-2200" width="138" height="24" as="geometry" />
        </mxCell>
        <mxCell id="ziQnmTmZbCSx23QUUUmI-20" style="edgeStyle=orthogonalEdgeStyle;rounded=0;orthogonalLoop=1;jettySize=auto;html=1;exitX=1;exitY=0.5;exitDx=0;exitDy=0;exitPerimeter=0;entryX=0;entryY=0.5;entryDx=0;entryDy=0;" parent="1" source="ziQnmTmZbCSx23QUUUmI-18" target="ziQnmTmZbCSx23QUUUmI-4" edge="1">
          <mxGeometry relative="1" as="geometry" />
        </mxCell>
        <mxCell id="ziQnmTmZbCSx23QUUUmI-21" value="Read" style="edgeLabel;html=1;align=center;verticalAlign=middle;resizable=0;points=[];" parent="ziQnmTmZbCSx23QUUUmI-20" vertex="1" connectable="0">
          <mxGeometry x="-0.0346" y="-3" relative="1" as="geometry">
            <mxPoint y="8" as="offset" />
          </mxGeometry>
        </mxCell>
        <mxCell id="ziQnmTmZbCSx23QUUUmI-27" style="edgeStyle=orthogonalEdgeStyle;rounded=0;orthogonalLoop=1;jettySize=auto;html=1;entryX=0.5;entryY=1;entryDx=0;entryDy=0;" parent="1" source="ziQnmTmZbCSx23QUUUmI-23" target="ziQnmTmZbCSx23QUUUmI-24" edge="1">
          <mxGeometry relative="1" as="geometry" />
        </mxCell>
        <mxCell id="ziQnmTmZbCSx23QUUUmI-28" value="Excute" style="edgeLabel;html=1;align=center;verticalAlign=middle;resizable=0;points=[];" parent="ziQnmTmZbCSx23QUUUmI-27" vertex="1" connectable="0">
          <mxGeometry y="-6" relative="1" as="geometry">
            <mxPoint x="14" as="offset" />
          </mxGeometry>
        </mxCell>
        <mxCell id="ziQnmTmZbCSx23QUUUmI-23" value="DBA" style="sketch=0;outlineConnect=0;fontColor=#232F3E;gradientColor=none;fillColor=#232F3D;strokeColor=none;dashed=0;verticalLabelPosition=bottom;verticalAlign=top;align=center;html=1;fontSize=12;fontStyle=0;aspect=fixed;pointerEvents=1;shape=mxgraph.aws4.user;" parent="1" vertex="1">
          <mxGeometry x="585" y="-1753" width="60" height="60" as="geometry" />
        </mxCell>
        <mxCell id="ziQnmTmZbCSx23QUUUmI-25" style="edgeStyle=orthogonalEdgeStyle;rounded=0;orthogonalLoop=1;jettySize=auto;html=1;exitX=0.5;exitY=0;exitDx=0;exitDy=0;entryX=0.5;entryY=1;entryDx=0;entryDy=0;" parent="1" source="ziQnmTmZbCSx23QUUUmI-24" target="ziQnmTmZbCSx23QUUUmI-4" edge="1">
          <mxGeometry relative="1" as="geometry" />
        </mxCell>
        <mxCell id="ziQnmTmZbCSx23QUUUmI-26" value="Insert" style="edgeLabel;html=1;align=center;verticalAlign=middle;resizable=0;points=[];" parent="ziQnmTmZbCSx23QUUUmI-25" vertex="1" connectable="0">
          <mxGeometry x="0.0364" y="2" relative="1" as="geometry">
            <mxPoint x="19" y="17" as="offset" />
          </mxGeometry>
        </mxCell>
        <mxCell id="ziQnmTmZbCSx23QUUUmI-24" value="" style="shape=image;html=1;verticalAlign=top;verticalLabelPosition=bottom;labelBackgroundColor=#ffffff;imageAspect=0;aspect=fixed;image=https://cdn3.iconfinder.com/data/icons/cad-database-presentation-spreadsheet-vector-fil-2/512/11-128.png" parent="1" vertex="1">
          <mxGeometry x="579.5" y="-1890" width="71" height="71" as="geometry" />
        </mxCell>
      </root>
    </mxGraphModel>
  </diagram>
</mxfile>
